<svg width="1749" height="41" viewBox="0 0 1749 41" fill="none" xmlns="http://www.w3.org/2000/svg">
<path opacity="0.1" d="M1253.74 0C1276.88 0 1298.93 7.17 1314.44 19.71L1314.99 20.17C1330.27 32.783 1352.2 40.0008 1375.22 40H1749V41H1375.22C1352.1 41.0012 1330.05 33.8419 1314.52 21.29L1313.98 20.83C1298.69 8.21698 1276.76 0.999158 1253.74 1H1132.41C1110 0.998759 1088.67 8.05445 1073.85 20.37L1073.31 20.83C1058.23 33.6296 1036.3 40.9919 1013.22 41H0V40H1013.2C1035.62 40.0012 1056.95 32.9455 1071.76 20.63L1072.31 20.17C1087.39 7.36779 1109.33 0.00523363 1132.41 0L1253.74 0Z" fill="white"/>
</svg>
