<svg width="13" height="23" viewBox="0 0 13 23" fill="none" xmlns="http://www.w3.org/2000/svg">
<path d="M3.42428 13.0693C3.33867 13.0693 1.45532 13.0693 0.599249 13.0693C0.142678 13.0693 0 12.8981 0 12.47C0 11.3286 0 10.1587 0 9.01723C0 8.56066 0.171214 8.41798 0.599249 8.41798H3.42428C3.42428 8.33237 3.42428 6.6773 3.42428 5.90684C3.42428 4.76541 3.62403 3.68106 4.19474 2.68231C4.79399 1.65503 5.65006 0.97017 6.73442 0.57067C7.44781 0.313849 8.1612 0.199707 8.93166 0.199707H11.7282C12.1277 0.199707 12.2989 0.370921 12.2989 0.77042V4.02349C12.2989 4.42299 12.1277 4.5942 11.7282 4.5942C10.9577 4.5942 10.1872 4.5942 9.41677 4.62274C8.64631 4.62274 8.24681 4.9937 8.24681 5.7927C8.21827 6.64877 8.24681 7.4763 8.24681 8.36091H11.5569C12.0135 8.36091 12.1847 8.53212 12.1847 8.98869V12.4415C12.1847 12.8981 12.0421 13.0408 11.5569 13.0408C10.5297 13.0408 8.33241 13.0408 8.24681 13.0408V22.3434C8.24681 22.8285 8.10413 22.9997 7.59049 22.9997C6.39199 22.9997 5.22203 22.9997 4.02353 22.9997C3.59549 22.9997 3.42428 22.8285 3.42428 22.4005C3.42428 19.4042 3.42428 13.1549 3.42428 13.0693Z" fill="#8BAAB7"/>
</svg>
