<svg width="28" height="28" viewBox="0 0 28 28" fill="none" xmlns="http://www.w3.org/2000/svg">
<path d="M20.626 8.30663C20.626 8.58663 20.8593 8.81996 21.1393 8.81996C21.4193 8.81996 21.6527 8.58663 21.6527 8.30663C21.6527 8.02663 21.4193 7.79329 21.1393 7.79329C20.8593 7.74663 20.626 7.97996 20.626 8.30663ZM25.2927 10.08L24.406 9.89329V3.91996C24.406 2.84663 23.5193 1.95996 22.446 1.95996H20.906L20.766 2.19329C19.646 3.82663 18.1527 5.22663 16.3793 6.15996C16.3327 6.15996 16.3327 6.20663 16.286 6.20663C13.8594 7.51329 10.826 8.21329 6.95268 8.39996H3.12602C2.05268 8.39996 1.16602 9.28663 1.16602 10.36V15.9133C1.16602 16.9866 2.05268 17.8733 3.12602 17.8733H3.45268V24.08C3.45268 25.1533 4.33935 26.04 5.41268 26.04H6.39268C7.32602 26.04 8.11935 25.3866 8.30602 24.4533L9.56602 18.06C14.6993 18.6666 18.526 20.8133 20.766 24.36L20.906 24.5933H22.4927C23.566 24.5933 24.4527 23.7066 24.4527 22.6333V16.7066L25.3393 16.52C26.226 16.3333 26.8793 15.54 26.8793 14.6066V11.9466C26.8327 11.06 26.1793 10.2666 25.2927 10.08ZM3.12602 16.8466C2.65935 16.8466 2.23935 16.4733 2.23935 15.96V10.36C2.23935 9.89329 2.61268 9.47329 3.12602 9.47329H6.01935V16.8H3.12602V16.8466ZM7.23268 24.2666C7.13935 24.6866 6.76602 24.9666 6.34602 24.9666H5.36602C4.89935 24.9666 4.47935 24.5933 4.47935 24.08V17.8733H6.90602C7.41935 17.8733 7.93268 17.92 8.44602 17.92L7.23268 24.2666ZM23.3327 22.68C23.3327 23.1466 22.9127 23.5666 22.446 23.5666H21.6993V10.92C21.6993 10.64 21.466 10.4066 21.186 10.4066C20.906 10.4066 20.6727 10.64 20.6727 10.92V22.4466C18.1527 19.4133 14.466 17.5933 9.70602 17.0333C8.81935 16.94 7.93268 16.8466 7.04602 16.8466V9.47329C9.93935 9.33329 13.2527 8.91329 16.2393 7.41996C16.9393 7.04663 17.6393 6.62663 18.2927 6.15996C19.1327 5.55329 19.926 4.80663 20.626 4.01329V5.64663C20.626 5.92663 20.8593 6.15996 21.1393 6.15996C21.4193 6.15996 21.6527 5.92663 21.6527 5.64663V3.03329H22.3993C22.866 3.03329 23.286 3.45329 23.286 3.91996V22.68H23.3327ZM25.7593 14.6533C25.7593 15.0733 25.4793 15.4466 25.0593 15.54L24.3594 15.68V10.9666L25.0593 11.1066C25.4793 11.2 25.7593 11.5733 25.7593 11.9933V14.6533ZM21.186 8.81996C21.466 8.81996 21.6993 8.58663 21.6993 8.30663C21.6993 8.02663 21.466 7.79329 21.186 7.79329C20.906 7.79329 20.6727 8.02663 20.6727 8.30663C20.626 8.58663 20.8594 8.81996 21.186 8.81996ZM20.626 8.30663C20.626 8.58663 20.8593 8.81996 21.1393 8.81996C21.4193 8.81996 21.6527 8.58663 21.6527 8.30663C21.6527 8.02663 21.4193 7.79329 21.1393 7.79329C20.8593 7.74663 20.626 7.97996 20.626 8.30663Z" fill="#8BAAB7"/>
</svg>
