<svg width="28" height="28" viewBox="0 0 28 28" fill="none" xmlns="http://www.w3.org/2000/svg">
<path d="M14.0001 0.560059C7.97868 0.560059 3.08008 5.45866 3.08008 11.4801C3.08008 19.3539 12.5301 27.4401 14.0001 27.4401C15.4701 27.4401 24.9201 19.3539 24.9201 11.4801C24.9201 5.45866 20.0215 0.560059 14.0001 0.560059ZM14.0001 25.7021C12.3024 24.7694 4.76008 17.9215 4.76008 11.4801C4.76008 6.38518 8.9052 2.24006 14.0001 2.24006C19.095 2.24006 23.2401 6.38518 23.2401 11.4801C23.2401 17.9215 15.6977 24.7694 14.0001 25.7021ZM14.0001 5.60006C10.7577 5.60006 8.12008 8.23766 8.12008 11.4801C8.12008 14.7225 10.7577 17.3601 14.0001 17.3601C17.2425 17.3601 19.8801 14.7225 19.8801 11.4801C19.8801 8.23766 17.2425 5.60006 14.0001 5.60006ZM14.0001 15.6801C11.6842 15.6801 9.80008 13.7959 9.80008 11.4801C9.80008 9.16418 11.6842 7.28006 14.0001 7.28006C16.316 7.28006 18.2001 9.16418 18.2001 11.4801C18.2001 13.7959 16.316 15.6801 14.0001 15.6801Z" fill="#8BAAB7"/>
</svg>
