<svg width="28" height="28" viewBox="0 0 28 28" fill="none" xmlns="http://www.w3.org/2000/svg">
<path d="M19.3109 25.3773C18.7681 25.3768 18.2278 25.3034 17.7044 25.1591C14.1562 24.1761 10.9227 22.2916 8.31836 19.6889C5.71404 17.0862 3.82753 13.8539 2.84226 10.3063C2.62009 9.50238 2.56759 8.66105 2.6881 7.83576C2.80861 7.01047 3.09949 6.21927 3.54226 5.51246C3.99051 4.78842 4.58231 4.16386 5.28117 3.67728C5.98003 3.1907 6.77115 2.85242 7.60576 2.68329C8.14276 2.57196 8.70112 2.63093 9.20302 2.85198C9.70492 3.07302 10.1254 3.44514 10.4058 3.91646L12.2304 6.99646C12.6566 7.71668 12.7901 8.57301 12.6035 9.3888C12.4168 10.2046 11.9241 10.9176 11.2271 11.3808L9.90759 12.2593C11.1502 14.8002 13.2023 16.8559 15.7409 18.1031L16.6299 16.7766C17.0956 16.0806 17.8107 15.5899 18.6277 15.4061C19.4447 15.2222 20.3011 15.3591 21.0201 15.7885L24.1024 17.6271C24.5689 17.9051 24.9377 18.3208 25.1581 18.817C25.3785 19.3132 25.4397 19.8655 25.3333 20.398C25.1647 21.2335 24.8266 22.0257 24.3398 22.7254C23.8529 23.4251 23.2278 24.0176 22.5029 24.4661C21.5449 25.0621 20.4391 25.3777 19.3109 25.3773ZM8.14126 4.37729C8.08326 4.37734 8.02542 4.3832 7.96859 4.39479C7.36488 4.51412 6.79219 4.75645 6.28619 5.10669C5.78019 5.45694 5.3517 5.9076 5.02742 6.43063C4.71196 6.93344 4.50483 7.49651 4.41925 8.08389C4.33368 8.67127 4.37154 9.27004 4.53042 9.84196C5.43385 13.0974 7.16451 16.0635 9.55403 18.4518C11.9435 20.8401 14.9106 22.5692 18.1664 23.471C18.7379 23.6291 19.3361 23.6665 19.9228 23.5807C20.5095 23.4949 21.0719 23.2879 21.5743 22.9728C22.0947 22.6516 22.5437 22.227 22.8934 21.7253C23.2432 21.2236 23.4863 20.6555 23.6078 20.0561C23.6431 19.8787 23.6227 19.6946 23.5494 19.5292C23.4761 19.3638 23.3535 19.2251 23.1983 19.1321L20.1148 17.2935C19.7807 17.0935 19.3824 17.0297 19.0026 17.1153C18.6227 17.2008 18.2904 17.4292 18.0743 17.7531L16.7734 19.6945C16.6604 19.8626 16.4926 19.9863 16.2987 20.0448C16.1048 20.1033 15.8965 20.0929 15.7094 20.0153C12.2261 18.5432 9.45674 15.7671 7.99309 12.2803C7.91498 12.0928 7.9045 11.884 7.96346 11.6897C8.02242 11.4954 8.14715 11.3276 8.31626 11.2151L10.2541 9.91663C10.5779 9.7017 10.8069 9.37067 10.8937 8.99184C10.9805 8.61301 10.9186 8.2153 10.7208 7.88079L8.89492 4.80546C8.81751 4.67443 8.7073 4.56582 8.57514 4.49033C8.44299 4.41484 8.29345 4.37508 8.14126 4.37496V4.37729ZM20.7086 11.6666C20.707 10.5068 20.2456 9.39488 19.4255 8.57474C18.6053 7.7546 17.4934 7.29317 16.3336 7.29163C16.1015 7.29163 15.879 7.38381 15.7149 7.54791C15.5508 7.712 15.4586 7.93456 15.4586 8.16663C15.4586 8.39869 15.5508 8.62125 15.7149 8.78535C15.879 8.94944 16.1015 9.04163 16.3336 9.04163C17.0295 9.04255 17.6966 9.31941 18.1887 9.81149C18.6808 10.3036 18.9577 10.9707 18.9586 11.6666C18.9586 11.8987 19.0508 12.1213 19.2149 12.2853C19.379 12.4494 19.6015 12.5416 19.8336 12.5416C20.0657 12.5416 20.2882 12.4494 20.4523 12.2853C20.6164 12.1213 20.7086 11.8987 20.7086 11.6666ZM24.2086 11.6666C24.2061 9.5788 23.3756 7.5772 21.8993 6.10089C20.423 4.62458 18.4214 3.7941 16.3336 3.79163C16.1015 3.79163 15.879 3.88381 15.7149 4.04791C15.5508 4.212 15.4586 4.43456 15.4586 4.66663C15.4586 4.89869 15.5508 5.12125 15.7149 5.28535C15.879 5.44944 16.1015 5.54163 16.3336 5.54163C17.9575 5.54348 19.5143 6.18938 20.6626 7.33764C21.8108 8.4859 22.4567 10.0427 22.4586 11.6666C22.4586 11.8987 22.5508 12.1213 22.7149 12.2853C22.879 12.4494 23.1015 12.5416 23.3336 12.5416C23.5657 12.5416 23.7882 12.4494 23.9523 12.2853C24.1164 12.1213 24.2086 11.8987 24.2086 11.6666Z" fill="#8BAAB7"/>
</svg>
