<svg width="28" height="28" viewBox="0 0 28 28" fill="none" xmlns="http://www.w3.org/2000/svg">
<path d="M25.2232 4.83508H2.77687C1.24562 4.83508 0 6.08065 0 7.61195V20.388C0 21.9193 1.24562 23.1649 2.77687 23.1649H25.2231C26.7544 23.1649 27.9999 21.9193 27.9999 20.388V7.61195C28 6.08065 26.7544 4.83508 25.2232 4.83508ZM26.1488 7.61195V20.388C26.1488 20.5341 26.1077 20.6674 26.0471 20.7903L19.5031 14.2458L26.1469 7.60196C26.1469 7.60565 26.1488 7.60832 26.1488 7.61195ZM1.85125 20.388V7.61195C1.85125 7.60832 1.85312 7.60571 1.85312 7.60202L8.49696 14.2459L1.95252 20.7902C1.89238 20.6673 1.85125 20.5341 1.85125 20.388ZM14.2857 16.8456C14.133 16.9983 13.8671 16.9983 13.7144 16.8456L3.5556 6.68633H24.4449L14.2857 16.8456ZM9.80585 15.5548L12.4055 18.1545C12.8317 18.5806 13.398 18.8152 14 18.8152C14.602 18.8152 15.1684 18.5806 15.5946 18.1545L18.1943 15.5548L23.9527 21.3136H4.04695L9.80585 15.5548Z" fill="#8BAAB7"/>
</svg>
