<svg width="38" height="34" viewBox="0 0 38 34" fill="none" xmlns="http://www.w3.org/2000/svg">
<path d="M11.9822 30.3303C11.3323 30.3292 10.7093 30.0705 10.2499 29.6108C9.79042 29.1511 9.53199 28.528 9.53125 27.8781C9.53125 27.7331 9.58887 27.594 9.69143 27.4914C9.79398 27.3889 9.93308 27.3312 10.0781 27.3312C10.2232 27.3312 10.3623 27.3889 10.4648 27.4914C10.5674 27.594 10.625 27.7331 10.625 27.8781C10.625 28.1469 10.7047 28.4096 10.854 28.633C11.0033 28.8565 11.2156 29.0306 11.4639 29.1335C11.7121 29.2363 11.9854 29.2632 12.2489 29.2107C12.5125 29.1583 12.7546 29.0288 12.9446 28.8388C13.1347 28.6487 13.264 28.4066 13.3164 28.143C13.3688 27.8794 13.3419 27.6062 13.239 27.3579C13.1361 27.1097 12.9619 26.8975 12.7384 26.7482C12.5149 26.5989 12.2522 26.5193 11.9834 26.5194C11.4985 26.5193 11.0244 26.3754 10.6212 26.1059C10.2179 25.8365 9.90369 25.4535 9.71813 25.0054C9.53258 24.5573 9.48406 24.0642 9.57872 23.5886C9.67337 23.1129 9.90694 22.676 10.2499 22.3331C10.5929 21.9902 11.0298 21.7567 11.5055 21.6621C11.9811 21.5675 12.4742 21.6161 12.9222 21.8017C13.3703 21.9873 13.7533 22.3016 14.0227 22.7049C14.2921 23.1081 14.4359 23.5822 14.4359 24.0672C14.4359 24.2122 14.3783 24.3513 14.2758 24.4539C14.1732 24.5564 14.0341 24.6141 13.8891 24.6141C13.744 24.6141 13.6049 24.5564 13.5024 24.4539C13.3998 24.3513 13.3422 24.2122 13.3422 24.0672C13.3422 23.7984 13.2626 23.5357 13.1133 23.3122C12.9641 23.0887 12.7519 22.9145 12.5036 22.8116C12.2554 22.7087 11.9821 22.6818 11.7185 22.7342C11.455 22.7866 11.2128 22.916 11.0228 23.106C10.8327 23.296 10.7033 23.5381 10.6508 23.8017C10.5984 24.0653 10.6253 24.3385 10.7281 24.5868C10.8309 24.8351 11.0051 25.0473 11.2285 25.1966C11.452 25.3459 11.7147 25.4256 11.9834 25.4256C12.3078 25.422 12.6297 25.4827 12.9304 25.6043C13.2312 25.7259 13.5048 25.9059 13.7355 26.134C13.9662 26.3621 14.1493 26.6337 14.2743 26.933C14.3993 27.2324 14.4636 27.5536 14.4636 27.878C14.4636 28.2024 14.3993 28.5235 14.2743 28.8229C14.1493 29.1222 13.9662 29.3938 13.7355 29.6219C13.5048 29.85 13.2312 30.03 12.9304 30.1516C12.6297 30.2732 12.3078 30.334 11.9834 30.3303H11.9822Z" fill="#B6DCEA"/>
<path d="M20.3332 30.3303H17.9826C17.4873 30.3297 17.0125 30.1327 16.6623 29.7825C16.3122 29.4323 16.1152 28.9574 16.1147 28.4622V23.4831C16.1152 22.9879 16.3122 22.513 16.6623 22.1628C17.0125 21.8126 17.4873 21.6156 17.9826 21.615H20.3332C20.4782 21.615 20.6173 21.6726 20.7199 21.7752C20.8224 21.8777 20.8801 22.0168 20.8801 22.1619C20.8801 22.3069 20.8224 22.446 20.7199 22.5486C20.6173 22.6511 20.4782 22.7087 20.3332 22.7087H17.9826C17.7773 22.709 17.5805 22.7907 17.4354 22.9358C17.2903 23.081 17.2087 23.2778 17.2085 23.4831V28.4622C17.2087 28.6675 17.2903 28.8643 17.4354 29.0095C17.5805 29.1546 17.7773 29.2363 17.9826 29.2366H20.3332C20.4782 29.2366 20.6173 29.2942 20.7199 29.3967C20.8224 29.4993 20.8801 29.6384 20.8801 29.7834C20.8801 29.9285 20.8224 30.0676 20.7199 30.1701C20.6173 30.2727 20.4782 30.3303 20.3332 30.3303Z" fill="#B6DCEA"/>
<path d="M20.3332 26.5194H16.6616C16.5166 26.5194 16.3775 26.4618 16.2749 26.3592C16.1724 26.2567 16.1147 26.1176 16.1147 25.9725C16.1147 25.8275 16.1724 25.6884 16.2749 25.5858C16.3775 25.4833 16.5166 25.4257 16.6616 25.4257H20.3332C20.4782 25.4257 20.6173 25.4833 20.7199 25.5858C20.8224 25.6884 20.8801 25.8275 20.8801 25.9725C20.8801 26.1176 20.8224 26.2567 20.7199 26.3592C20.6173 26.4618 20.4782 26.5194 20.3332 26.5194Z" fill="#B6DCEA"/>
<path d="M26.8656 30.3303H24.2541C23.8287 30.3298 23.4209 30.1606 23.1202 29.8597C22.8194 29.5589 22.6504 29.151 22.65 28.7256V23.2188C22.6504 22.7934 22.8196 22.3856 23.1203 22.0849C23.421 21.7841 23.8288 21.6149 24.2541 21.6144H26.8656C27.2908 21.6152 27.6983 21.7845 27.9988 22.0853C28.2993 22.386 28.4683 22.7936 28.4688 23.2188V28.725C28.4685 29.1503 28.2996 29.5581 27.9991 29.8591C27.6986 30.16 27.2909 30.3295 26.8656 30.3303ZM24.2541 22.7088C24.1188 22.7089 23.9892 22.7627 23.8935 22.8583C23.7979 22.9539 23.744 23.0835 23.7438 23.2188V28.725C23.7438 28.8604 23.7975 28.9903 23.8932 29.0861C23.9889 29.1819 24.1187 29.2358 24.2541 29.2359H26.8656C27.0011 29.2357 27.1308 29.1818 27.2266 29.086C27.3223 28.9902 27.3761 28.8604 27.3763 28.725V23.2188C27.3761 23.0834 27.3223 22.9536 27.2265 22.8579C27.1308 22.7621 27.001 22.7083 26.8656 22.7081L24.2541 22.7088Z" fill="#B6DCEA"/>
<path d="M4.97412 20.8216C4.82908 20.8216 4.68998 20.764 4.58742 20.6614C4.48486 20.5588 4.42725 20.4197 4.42725 20.2747V11.2263C4.42774 10.8196 4.58949 10.4298 4.87702 10.1423C5.16455 9.85475 5.55437 9.693 5.961 9.6925H8.35381C8.76043 9.693 9.15026 9.85475 9.43779 10.1423C9.72531 10.4298 9.88706 10.8196 9.88756 11.2263V18.3106C9.88756 18.4557 9.82994 18.5948 9.72738 18.6973C9.62482 18.7999 9.48572 18.8575 9.34068 18.8575C9.19564 18.8575 9.05654 18.7999 8.95398 18.6973C8.85143 18.5948 8.79381 18.4557 8.79381 18.3106V11.2263C8.79364 11.1096 8.74723 10.9978 8.66475 10.9153C8.58227 10.8328 8.47045 10.7864 8.35381 10.7863H5.961C5.84435 10.7864 5.73253 10.8328 5.65005 10.9153C5.56757 10.9978 5.52116 11.1096 5.521 11.2263V20.2747C5.521 20.4197 5.46338 20.5588 5.36082 20.6614C5.25826 20.764 5.11916 20.8216 4.97412 20.8216Z" fill="#B6DCEA"/>
<path d="M12.8669 14.0732C12.7951 14.0732 12.724 14.0591 12.6576 14.0316C12.5912 14.0042 12.5309 13.9639 12.4802 13.9131C12.4294 13.8623 12.3891 13.802 12.3616 13.7356C12.3341 13.6693 12.32 13.5981 12.3201 13.5263V5.9513C12.3205 5.54462 12.4822 5.15471 12.7697 4.86712C13.0573 4.57953 13.4471 4.41773 13.8538 4.41724H16.2501C16.6567 4.41773 17.0466 4.57953 17.3342 4.86712C17.6217 5.15471 17.7834 5.54462 17.7838 5.9513V12.3091C17.7838 12.4542 17.7262 12.5933 17.6236 12.6958C17.5211 12.7984 17.382 12.856 17.2369 12.856C17.0919 12.856 16.9528 12.7984 16.8502 12.6958C16.7477 12.5933 16.6901 12.4542 16.6901 12.3091V5.9513C16.69 5.8346 16.6436 5.7227 16.5611 5.64015C16.4786 5.5576 16.3668 5.51115 16.2501 5.51099H13.8538C13.7371 5.51115 13.6253 5.5576 13.5428 5.64015C13.4603 5.7227 13.4139 5.8346 13.4138 5.9513V13.5263C13.4139 13.5981 13.3997 13.6693 13.3723 13.7356C13.3448 13.802 13.3045 13.8623 13.2537 13.9131C13.2029 13.9639 13.1426 14.0042 13.0763 14.0316C13.0099 14.0591 12.9388 14.0732 12.8669 14.0732Z" fill="#B6DCEA"/>
<path d="M25.1301 16.2119C24.985 16.2119 24.8459 16.1543 24.7434 16.0517C24.6408 15.9491 24.5832 15.81 24.5832 15.665V1.89313C24.583 1.77648 24.5366 1.66466 24.4541 1.58218C24.3716 1.4997 24.2598 1.45329 24.1432 1.45312H21.7501C21.6334 1.45321 21.5215 1.49959 21.439 1.58209C21.3565 1.66459 21.3101 1.77646 21.3101 1.89313V13.1744C21.3101 13.3194 21.2524 13.4585 21.1499 13.5611C21.0473 13.6636 20.9082 13.7212 20.7632 13.7212C20.6181 13.7212 20.479 13.6636 20.3765 13.5611C20.2739 13.4585 20.2163 13.3194 20.2163 13.1744V1.89313C20.2168 1.4865 20.3786 1.09667 20.6661 0.809148C20.9536 0.521622 21.3434 0.359871 21.7501 0.359375H24.1426C24.5492 0.359871 24.939 0.521622 25.2265 0.809148C25.5141 1.09667 25.6758 1.4865 25.6763 1.89313V15.665C25.6763 15.8099 25.6188 15.9489 25.5164 16.0515C25.4139 16.154 25.275 16.2117 25.1301 16.2119Z" fill="#B6DCEA"/>
<path d="M33.0268 20.8257C32.8818 20.8257 32.7427 20.7681 32.6401 20.6655C32.5376 20.5629 32.48 20.4238 32.48 20.2788V5.9513C32.4799 5.8346 32.4335 5.7227 32.351 5.64015C32.2685 5.5576 32.1567 5.51115 32.04 5.51099H29.6472C29.5305 5.51115 29.4186 5.5576 29.3361 5.64015C29.2536 5.7227 29.2072 5.8346 29.2072 5.9513V17.0244C29.2072 17.1695 29.1495 17.3086 29.047 17.4111C28.9444 17.5137 28.8053 17.5713 28.6603 17.5713C28.5152 17.5713 28.3761 17.5137 28.2736 17.4111C28.171 17.3086 28.1134 17.1695 28.1134 17.0244V5.9513C28.1138 5.54462 28.2755 5.15471 28.5631 4.86712C28.8506 4.57953 29.2405 4.41773 29.6472 4.41724H32.04C32.4466 4.41773 32.8365 4.57953 33.1241 4.86712C33.4116 5.15471 33.5733 5.54462 33.5737 5.9513V20.2788C33.5737 20.4238 33.5161 20.5629 33.4135 20.6655C33.311 20.7681 33.1719 20.8257 33.0268 20.8257Z" fill="#B6DCEA"/>
<path d="M12.3125 18.3959C12.2233 18.3959 12.1355 18.374 12.0567 18.3322C11.978 18.2905 11.9106 18.2301 11.8605 18.1563C11.8104 18.0825 11.7791 17.9976 11.7693 17.909C11.7595 17.8204 11.7716 17.7307 11.8044 17.6478C12.1862 16.6717 12.8543 15.834 13.7211 15.2448C14.5878 14.6555 15.6125 14.3423 16.6606 14.3462C16.8057 14.3462 16.9448 14.4038 17.0473 14.5064C17.1499 14.609 17.2075 14.7481 17.2075 14.8931C17.2075 15.0381 17.1499 15.1772 17.0473 15.2798C16.9448 15.3824 16.8057 15.44 16.6606 15.44C15.8322 15.4371 15.0222 15.6849 14.3372 16.1507C13.6521 16.6165 13.1239 17.2785 12.8219 18.05C12.7816 18.1522 12.7114 18.2398 12.6206 18.3016C12.5297 18.3633 12.4223 18.3962 12.3125 18.3959Z" fill="#B6DCEA"/>
<path d="M34.2291 26.895C34.0884 26.8949 33.9531 26.8405 33.8515 26.7432C33.7498 26.6459 33.6895 26.5131 33.6832 26.3725C33.6492 25.5447 33.3656 24.7464 32.8696 24.0827C32.3736 23.419 31.6884 22.9209 30.9041 22.6538C30.8362 22.6304 30.7736 22.5939 30.7199 22.5463C30.6661 22.4987 30.6222 22.441 30.5908 22.3765C30.5593 22.3119 30.5409 22.2418 30.5365 22.1702C30.5322 22.0985 30.542 22.0267 30.5654 21.9588C30.5887 21.8909 30.6253 21.8283 30.6729 21.7746C30.7205 21.7208 30.7782 21.6769 30.8427 21.6455C30.9072 21.614 30.9773 21.5956 31.049 21.5912C31.1207 21.5869 31.1925 21.5966 31.2604 21.62C32.2526 21.9577 33.1194 22.5877 33.7468 23.4273C34.3742 24.2668 34.7329 25.2766 34.7757 26.3238C34.7822 26.4687 34.7309 26.6102 34.6331 26.7173C34.5353 26.8243 34.399 26.8882 34.2541 26.8947L34.2291 26.895Z" fill="#B6DCEA"/>
<path d="M29.92 33.6407H8.08002C6.13507 33.6407 4.26978 32.868 2.8945 31.4927C1.51921 30.1175 0.746582 28.2522 0.746582 26.3072C0.746582 24.3623 1.51921 22.497 2.8945 21.1217C4.26978 19.7464 6.13507 18.9738 8.08002 18.9738C8.25689 18.9738 8.44033 18.9819 8.63283 18.9988C8.89854 17.3386 9.64494 15.7927 10.7797 14.5522C11.9146 13.3117 13.388 12.4309 15.018 12.0188C16.648 11.6067 18.363 11.6812 19.9511 12.2333C21.5391 12.7853 22.9306 13.7907 23.9535 15.125C24.1697 15.1053 24.3681 15.0957 24.5616 15.0957C25.9062 15.0999 27.224 15.4725 28.3719 16.1728C29.5197 16.8731 30.4539 17.8744 31.0728 19.0682C32.895 19.3573 34.5412 20.3229 35.6829 21.7722C36.8246 23.2215 37.3779 25.048 37.2324 26.8873C37.0869 28.7265 36.2533 30.4433 34.8979 31.6951C33.5425 32.9468 31.765 33.6416 29.92 33.6407ZM8.08002 20.0675C6.42515 20.0675 4.83806 20.7249 3.66789 21.8951C2.49773 23.0653 1.84033 24.6523 1.84033 26.3072C1.84033 27.9621 2.49773 29.5492 3.66789 30.7193C4.83806 31.8895 6.42515 32.5469 8.08002 32.5469H29.92C31.5118 32.5477 33.0437 31.9398 34.202 30.8478C35.3602 29.7559 36.0572 28.2624 36.1501 26.6733C36.2431 25.0842 35.725 23.5197 34.7019 22.3001C33.6789 21.0806 32.2283 20.2983 30.6472 20.1135C30.5544 20.1027 30.4659 20.0684 30.3902 20.0137C30.3145 19.9589 30.254 19.8857 30.2147 19.801C29.7119 18.7251 28.9136 17.8143 27.9128 17.1748C26.912 16.5354 25.7501 16.1936 24.5625 16.1894C24.2976 16.1912 24.0331 16.21 23.7706 16.2457C23.6724 16.2587 23.5725 16.2446 23.4817 16.2048C23.391 16.165 23.3129 16.1011 23.256 16.02C22.3701 14.768 21.1221 13.8173 19.6798 13.2958C18.2374 12.7743 16.67 12.7071 15.1883 13.1031C13.7066 13.4992 12.3817 14.3395 11.3919 15.5111C10.4021 16.6826 9.79489 18.1292 9.65189 19.6563C9.645 19.7305 9.62301 19.8025 9.58726 19.8679C9.55152 19.9333 9.50277 19.9907 9.44403 20.0365C9.38529 20.0824 9.31779 20.1158 9.24568 20.1346C9.17357 20.1534 9.09837 20.1573 9.02471 20.146C8.71229 20.0956 8.39646 20.0694 8.08002 20.0675Z" fill="#B6DCEA"/>
</svg>
